<svg width="24" height="24" xmlns="http://www.w3.org/2000/svg">

 <g>
  <title>Layer 1</title>
  <path fill="#ffffff" id="svg_1" d="m4,2a2,2 0 0 0 -2,2l0,12a2,2 0 0 0 2,2l4,0l0,3a1,1 0 0 0 1,1l0.5,0l0,0c0.25,0 0.5,-0.1 0.7,-0.29l3.7,-3.71l6.1,0a2,2 0 0 0 2,-2l0,-12c0,-1.11 -0.9,-2 -2,-2l-16,0m0,2l16,0l0,12l-6.92,0l-3.08,3.08l0,-3.08l-6,0l0,-12m8.19,1.5c-0.89,0 -1.6,0.18 -2.14,0.54c-0.55,0.36 -0.83,0.96 -0.78,1.65c-9.06,0 -2.7,0 1.97,0c0,-0.28 0.1,-0.49 0.26,-0.63c0.2,-0.14 0.42,-0.21 0.69,-0.21c0.31,0 0.58,0.08 0.76,0.26c0.18,0.17 0.27,0.39 0.27,0.69c0,0.28 -0.08,0.53 -0.22,0.74c-0.17,0.22 -0.38,0.4 -0.64,0.54c-0.52,0.32 -0.86,0.6 -1.07,0.84c-0.19,0.24 -0.29,0.58 -0.29,1.08l2,0c0,-0.28 0.05,-0.5 0.14,-0.68c0.09,-0.17 0.26,-0.32 0.52,-0.47c0.46,-0.21 0.84,-0.49 1.13,-0.85c0.29,-0.37 0.44,-0.76 0.44,-1.2c0,-0.7 -0.27,-1.26 -0.81,-1.68c-0.54,-0.41 -1.29,-0.62 -2.23,-0.62m-1.19,6.5l0,2l2,0l0,-2l-2,0z"/>
 </g>
</svg>