<svg width="24" height="24" xmlns="http://www.w3.org/2000/svg">

 <g>
  <title>Layer 1</title>
  <path fill="#ffffff" id="svg_1" d="m12,2a10,10 0 0 0 -10,10a10,10 0 0 0 10,10a10,10 0 0 0 10,-10a10,10 0 0 0 -10,-10m0,6.39c1.57,1.01 3.42,1.61 5.42,1.61c0.78,0 1.53,-0.09 2.25,-0.26c0.21,0.71 0.33,1.47 0.33,2.26c0,4.41 -3.59,8 -8,8c-3,0 -5.61,-1.66 -7,-4.11l1.75,-1.89l0,-1a1.25,1.25 0 0 1 1.25,-1.25a1.25,1.25 0 0 1 1.25,1.25l0,1l2.75,0m4,-2.25a1.25,1.25 0 0 0 -1.25,1.25a1.25,1.25 0 0 0 1.25,1.25a1.25,1.25 0 0 0 1.25,-1.25a1.25,1.25 0 0 0 -1.25,-1.25z"/>
 </g>
</svg>