<svg width="24" height="24" xmlns="http://www.w3.org/2000/svg">

 <g>
  <title>Layer 1</title>
  <path fill="#ffffff" id="svg_1" d="m21,11c0,5.55 -3.84,10.74 -9,12c-5.16,-1.26 -9,-6.45 -9,-12l0,-6l9,-4l9,4l0,6m-9,10c3.75,-1 7,-5.46 7,-9.78l0,-4.92l-7,-3.12l-7,3.12l0,4.92c0,4.32 3.25,8.78 7,9.78m2.8,-10l0,-1.5c0,-1.4 -1.4,-2.5 -2.8,-2.5c-1.4,0 -2.8,1.1 -2.8,2.5l0,1.5c-0.6,0 -1.2,0.6 -1.2,1.2l0,3.5c0,0.7 0.6,1.3 1.2,1.3l5.5,0c0.7,0 1.3,-0.6 1.3,-1.2l0,-3.5c0,-0.7 -0.6,-1.3 -1.2,-1.3m-1.3,0l-3,0l0,-1.5c0,-0.8 0.7,-1.3 1.5,-1.3c0.8,0 1.5,0.5 1.5,1.3l0,1.5z"/>
 </g>
</svg>